<svg width="38" height="35" viewBox="0 0 38 35" fill="none" xmlns="http://www.w3.org/2000/svg">
<path d="M1.63256 10.7708L18.8316 0.946486C18.9979 0.840411 19.1859 0.773245 19.3818 0.75H19.4866H19.5913C19.7841 0.761214 19.9719 0.814891 20.1415 0.907188L37.3405 10.7708C37.4902 10.8568 37.6214 10.9714 37.7268 11.1081C37.8321 11.2449 37.9095 11.401 37.9545 11.5677C37.9995 11.7343 38.0113 11.9082 37.9891 12.0794C37.9669 12.2505 37.9112 12.4157 37.8252 12.5653C37.7392 12.715 37.6245 12.8462 37.4878 12.9516C37.3511 13.0569 37.1949 13.1343 37.0283 13.1793C36.8617 13.2243 36.6878 13.2361 36.5166 13.2139C36.3454 13.1917 36.1803 13.136 36.0306 13.05L33.8955 11.8187V31.3493C33.8886 32.2689 33.5184 33.1484 32.8657 33.7962C32.213 34.444 31.3307 34.8075 30.4111 34.8075H8.56195C7.64237 34.8075 6.76006 34.444 6.10737 33.7962C5.45468 33.1484 5.08453 32.2689 5.07761 31.3493V11.8187L2.92937 13.0369C2.62712 13.2106 2.26825 13.2571 1.93171 13.1662C1.59516 13.0753 1.30851 12.8545 1.1348 12.5522C0.961098 12.25 0.914574 11.8911 1.00547 11.5546C1.09636 11.218 1.31722 10.9314 1.61946 10.7577L1.63256 10.7708ZM23.4163 24.3283C23.4163 23.286 23.0022 22.2865 22.2653 21.5495C21.5283 20.8126 20.5288 20.3986 19.4866 20.3986C18.4443 20.3986 17.4448 20.8126 16.7078 21.5495C15.9709 22.2865 15.5568 23.286 15.5568 24.3283V32.1877H23.4163V24.3283Z" fill="#E3E6ED"/>
</svg>
