<svg width="24" height="36" viewBox="0 0 24 36" fill="none" xmlns="http://www.w3.org/2000/svg">
<path d="M12.0041 0.789307H11.9957C5.80074 0.793511 0.760742 5.83351 0.760742 12.0285C0.760742 14.4183 1.50412 16.7031 2.90273 18.6309C2.90694 18.6309 2.90694 18.6351 2.90694 18.6351C3.12534 18.9627 7.03554 24.9015 8.33333 29.1015C8.36273 29.1897 8.44253 29.2485 8.53492 29.2485H8.69873L9.12293 31.3863H8.53492C8.47193 31.3863 8.41313 31.4157 8.37534 31.4619C8.33333 31.5081 8.31654 31.5711 8.32912 31.6341L8.91713 35.0403C8.93392 35.1411 9.02213 35.2125 9.12293 35.2125H14.8769C14.9777 35.2125 15.0659 35.1411 15.0827 35.0403L15.6707 31.6341C15.6833 31.5711 15.6665 31.5081 15.6245 31.4619C15.5867 31.4157 15.5279 31.3863 15.4649 31.3863H14.8811L15.3011 29.2485H15.4649C15.5573 29.2485 15.6371 29.1897 15.6665 29.1015C16.9643 24.9099 20.8619 18.9795 21.0887 18.6351C21.0929 18.6351 21.0929 18.6309 21.0971 18.6309C22.4957 16.7031 23.2391 14.4183 23.2391 12.0285C23.2391 5.83351 18.1991 0.793511 12.0041 0.789307ZM14.4527 31.3863H9.54713L9.12713 29.2485H14.8727L14.4527 31.3863ZM12.0041 1.20931C14.1125 1.21771 15.8891 6.1653 15.8891 12.0285C15.8891 14.3511 15.6245 16.5645 15.1205 18.4377C15.1163 18.4419 15.1163 18.4503 15.1121 18.4545C15.0995 18.5175 13.6211 24.5025 13.1003 28.8285H10.8995C10.3787 24.5025 8.90034 18.5175 8.88773 18.4545C8.88353 18.4503 8.88353 18.4419 8.88353 18.4377C8.37534 16.5645 8.11074 14.3511 8.11074 12.0285C8.11074 6.1653 9.89154 1.21771 11.9957 1.20931H12.0041Z" fill="#E3E6ED"/>
</svg>
